<?xml version="1.0" encoding="utf-8"?>
<!-- Generator: Adobe Illustrator 15.0.1, SVG Export Plug-In . SVG Version: 6.00 Build 0)  -->
<!DOCTYPE svg PUBLIC "-//W3C//DTD SVG 1.1//EN" "http://www.w3.org/Graphics/SVG/1.1/DTD/svg11.dtd">
<svg version="1.1" id="Layer_1" xmlns="http://www.w3.org/2000/svg" xmlns:xlink="http://www.w3.org/1999/xlink" x="0px" y="0px"
	 width="24px" height="24px" viewBox="0 0 24 24" enable-background="new 0 0 24 24" xml:space="preserve">
<g>
	
		<linearGradient id="SVGID_1_" gradientUnits="userSpaceOnUse" x1="588.5" y1="778.875" x2="611.25" y2="778.875" gradientTransform="matrix(1 0 0 1 -588 -767)">
		<stop  offset="0.3681" style="stop-color:#EBEBEB"/>
		<stop  offset="1" style="stop-color:#B3B3B3"/>
	</linearGradient>
	<circle fill="url(#SVGID_1_)" cx="11.875" cy="11.875" r="11.375"/>
</g>
<linearGradient id="SVGID_2_" gradientUnits="userSpaceOnUse" x1="611.916" y1="778.958" x2="588" y2="778.958" gradientTransform="matrix(1 0 0 1 -588 -767)">
	<stop  offset="0" style="stop-color:#4D4D4D"/>
	<stop  offset="1" style="stop-color:#000000"/>
</linearGradient>
<path fill="url(#SVGID_2_)" d="M11.958,1C18,1,22.916,5.916,22.916,11.958S18,22.916,11.958,22.916S1,18,1,11.958S5.916,1,11.958,1
	 M11.958,0C5.354,0,0,5.354,0,11.958c0,6.604,5.354,11.958,11.958,11.958c6.604,0,11.958-5.354,11.958-11.958
	C23.917,5.354,18.562,0,11.958,0L11.958,0z"/>
<g>
	
		<linearGradient id="SVGID_3_" gradientUnits="userSpaceOnUse" x1="599.9922" y1="787.2715" x2="599.9922" y2="771.1328" gradientTransform="matrix(1 0 0 1 -588 -767)">
		<stop  offset="0" style="stop-color:#4D4D4D"/>
		<stop  offset="1" style="stop-color:#000000"/>
	</linearGradient>
	<path fill="url(#SVGID_3_)" d="M11.98,20.271c-1.414,0-2.403-1.037-2.403-2.426c0-1.438,0.99-2.451,2.427-2.451
		c1.438,0,2.381,1.014,2.404,2.451c0,1.389-0.945,2.426-2.404,2.426H11.98z M10.426,14.546L9.813,4.133h4.382l-0.613,10.413H10.426z
		"/>
</g>
</svg>
