<?xml version="1.0" encoding="utf-8"?>
<!-- Generator: Adobe Illustrator 15.0.1, SVG Export Plug-In . SVG Version: 6.00 Build 0)  -->
<!DOCTYPE svg PUBLIC "-//W3C//DTD SVG 1.1//EN" "http://www.w3.org/Graphics/SVG/1.1/DTD/svg11.dtd">
<svg version="1.1" id="Layer_1" xmlns="http://www.w3.org/2000/svg" xmlns:xlink="http://www.w3.org/1999/xlink" x="0px" y="0px"
	 width="24px" height="24px" viewBox="0 0 24 24" enable-background="new 0 0 24 24" xml:space="preserve">
<linearGradient id="SVGID_1_" gradientUnits="userSpaceOnUse" x1="10.9204" y1="1.9795" x2="12.8672" y2="1.9795">
	<stop  offset="0" style="stop-color:#4D4D4D"/>
	<stop  offset="1" style="stop-color:#000000"/>
</linearGradient>
<path fill="url(#SVGID_1_)" d="M11.127,3.256c0.033,0.362,0.32,0.661,0.694,0.695c0.424,0.04,0.8-0.272,0.839-0.695l0.202-2.189
	c0.006-0.057,0.006-0.12,0-0.179c-0.05-0.535-0.523-0.929-1.059-0.879c-0.535,0.049-0.93,0.523-0.879,1.058L11.127,3.256z"/>
<linearGradient id="SVGID_2_" gradientUnits="userSpaceOnUse" x1="18.3955" y1="6.7031" x2="22.0508" y2="6.7031">
	<stop  offset="0" style="stop-color:#4D4D4D"/>
	<stop  offset="1" style="stop-color:#000000"/>
</linearGradient>
<path fill="url(#SVGID_2_)" d="M19.488,8.057l1.996-0.92c0.053-0.024,0.107-0.055,0.155-0.089c0.438-0.31,0.543-0.918,0.232-1.356
	c-0.311-0.439-0.917-0.542-1.356-0.232l-1.795,1.27c-0.296,0.21-0.412,0.608-0.254,0.95C18.645,8.065,19.102,8.234,19.488,8.057"/>
<linearGradient id="SVGID_3_" gradientUnits="userSpaceOnUse" x1="18.3965" y1="16.416" x2="22.0518" y2="16.416">
	<stop  offset="0" style="stop-color:#4D4D4D"/>
	<stop  offset="1" style="stop-color:#000000"/>
</linearGradient>
<path fill="url(#SVGID_3_)" d="M21.484,15.981l-1.996-0.919c-0.332-0.152-0.733-0.053-0.951,0.255
	c-0.245,0.346-0.162,0.827,0.184,1.073l1.795,1.27c0.047,0.033,0.102,0.063,0.156,0.089c0.487,0.225,1.064,0.011,1.29-0.477
	C22.188,16.784,21.973,16.206,21.484,15.981"/>
<linearGradient id="SVGID_4_" gradientUnits="userSpaceOnUse" x1="1.7051" y1="6.7031" x2="5.3599" y2="6.7031">
	<stop  offset="0" style="stop-color:#4D4D4D"/>
	<stop  offset="1" style="stop-color:#000000"/>
</linearGradient>
<path fill="url(#SVGID_4_)" d="M2.271,7.137l1.997,0.92c0.33,0.152,0.732,0.052,0.95-0.255c0.245-0.348,0.163-0.827-0.184-1.073
	L3.24,5.459c-0.047-0.033-0.102-0.065-0.155-0.09C2.597,5.145,2.02,5.358,1.795,5.846C1.569,6.334,1.783,6.913,2.271,7.137"/>
<linearGradient id="SVGID_5_" gradientUnits="userSpaceOnUse" x1="1.7051" y1="16.415" x2="5.3604" y2="16.415">
	<stop  offset="0" style="stop-color:#4D4D4D"/>
	<stop  offset="1" style="stop-color:#000000"/>
</linearGradient>
<path fill="url(#SVGID_5_)" d="M4.269,15.062l-1.997,0.919c-0.051,0.024-0.107,0.055-0.155,0.091
	c-0.438,0.31-0.542,0.917-0.233,1.354c0.311,0.439,0.919,0.543,1.357,0.233l1.795-1.27c0.297-0.211,0.412-0.608,0.254-0.951
	C5.112,15.053,4.654,14.884,4.269,15.062"/>
<linearGradient id="SVGID_6_" gradientUnits="userSpaceOnUse" x1="5.7568" y1="12.1318" x2="18.1133" y2="12.1318">
	<stop  offset="0.3681" style="stop-color:#EBEBEB"/>
	<stop  offset="1" style="stop-color:#B3B3B3"/>
</linearGradient>
<path fill="url(#SVGID_6_)" d="M11.935,5.419c-3.412,0-6.178,2.767-6.178,6.179c0,4.02,3.309,4.79,3.309,6.811v0.435h5.737v-0.435
	c0-1.92,3.311-2.725,3.311-6.811C18.113,8.186,15.348,5.419,11.935,5.419 M12.925,8.014c-2.507,0-4.547,2.04-4.547,4.545
	c0,1.002,0.327,1.928,0.878,2.681c-1.131-0.827-1.866-2.165-1.866-3.669c0-2.506,2.039-4.545,4.545-4.545
	c1.507,0,2.842,0.736,3.67,1.866C14.852,8.341,13.925,8.014,12.925,8.014"/>
<linearGradient id="SVGID_7_" gradientUnits="userSpaceOnUse" x1="5.0566" y1="12.1318" x2="18.8135" y2="12.1318">
	<stop  offset="0" style="stop-color:#4D4D4D"/>
	<stop  offset="1" style="stop-color:#000000"/>
</linearGradient>
<path fill="url(#SVGID_7_)" d="M11.935,5.419c3.413,0,6.179,2.767,6.179,6.179c0,4.086-3.311,4.891-3.311,6.811v0.435H9.065v-0.435
	c0-2.021-3.309-2.791-3.309-6.811C5.757,8.186,8.522,5.419,11.935,5.419 M11.935,4.719c-3.792,0-6.878,3.086-6.878,6.879
	c0,2.624,1.304,4.05,2.256,5.092c0.653,0.714,1.053,1.179,1.053,1.719v0.435c0,0.387,0.313,0.7,0.7,0.7h5.737
	c0.387,0,0.7-0.313,0.7-0.7v-0.435c0-0.483,0.385-0.928,1.013-1.611c0.97-1.056,2.298-2.503,2.298-5.2
	C18.813,7.805,15.728,4.719,11.935,4.719L11.935,4.719z"/>
<linearGradient id="SVGID_8_" gradientUnits="userSpaceOnUse" x1="9.0498" y1="22.127" x2="14.7871" y2="22.127">
	<stop  offset="0" style="stop-color:#4D4D4D"/>
	<stop  offset="1" style="stop-color:#000000"/>
</linearGradient>
<path fill="url(#SVGID_8_)" d="M9.05,22.184c0,0.271,0.148,0.487,0.308,0.627c0.244,0.212,0.544,0.328,0.818,0.421
	c0.115,0.036,0.225,0.069,0.322,0.096C10.536,23.704,10.849,24,11.236,24h1.378c0.394,0,0.713-0.307,0.738-0.694
	c0.182-0.051,0.398-0.114,0.605-0.199c0.186-0.078,0.369-0.173,0.528-0.311c0.157-0.135,0.302-0.347,0.301-0.612v-1.931H9.05V22.184
	z"/>
</svg>
