<?xml version="1.0" encoding="utf-8"?>
<!-- Generator: Adobe Illustrator 15.0.1, SVG Export Plug-In . SVG Version: 6.00 Build 0)  -->
<!DOCTYPE svg PUBLIC "-//W3C//DTD SVG 1.1//EN" "http://www.w3.org/Graphics/SVG/1.1/DTD/svg11.dtd">
<svg version="1.1" id="Layer_1" xmlns="http://www.w3.org/2000/svg" xmlns:xlink="http://www.w3.org/1999/xlink" x="0px" y="0px"
	 width="24px" height="24px" viewBox="0 0 24 24" enable-background="new 0 0 24 24" xml:space="preserve">
<g>
	
		<linearGradient id="SVGID_1_" gradientUnits="userSpaceOnUse" x1="294.4941" y1="-370.9995" x2="317.5049" y2="-370.9995" gradientTransform="matrix(1 0 0 -1 -294 -359)">
		<stop  offset="0.3681" style="stop-color:#EBEBEB"/>
		<stop  offset="1" style="stop-color:#B3B3B3"/>
	</linearGradient>
	<path fill="url(#SVGID_1_)" d="M12,23.505c-0.662,0-1.284-0.256-1.75-0.722L1.217,13.75c-0.466-0.466-0.723-1.086-0.723-1.749
		c0-0.662,0.257-1.283,0.723-1.749l9.033-9.035c0.466-0.466,1.087-0.723,1.75-0.723s1.283,0.257,1.749,0.723l9.033,9.035
		c0.964,0.965,0.964,2.534,0,3.498l-9.033,9.033C13.283,23.249,12.663,23.505,12,23.505z"/>
	
		<linearGradient id="SVGID_2_" gradientUnits="userSpaceOnUse" x1="317.999" y1="-370.999" x2="293.999" y2="-370.999" gradientTransform="matrix(1 0 0 -1 -294 -359)">
		<stop  offset="0" style="stop-color:#4D4D4D"/>
		<stop  offset="1" style="stop-color:#000000"/>
	</linearGradient>
	<path fill="url(#SVGID_2_)" d="M12,0.99c0.506,0,1.016,0.193,1.398,0.577l9.033,9.035c0.77,0.77,0.77,2.029,0,2.798l-9.033,9.033
		c-0.385,0.385-0.894,0.577-1.399,0.577c-0.507,0-1.014-0.192-1.399-0.577L1.567,13.4c-0.77-0.771-0.77-2.029,0-2.799l9.034-9.035
		C10.985,1.183,11.493,0.99,12,0.99 M12,0c-0.794,0-1.54,0.308-2.099,0.867L0.867,9.902C0.308,10.461,0,11.207,0,12.001
		s0.308,1.54,0.867,2.099L9.9,23.133C10.46,23.691,11.205,24,12,24s1.541-0.309,2.1-0.867l9.032-9.033
		c1.157-1.156,1.157-3.04,0-4.198L14.1,0.867C13.54,0.308,12.794,0,12,0L12,0z"/>
</g>
<g>
	
		<linearGradient id="SVGID_3_" gradientUnits="userSpaceOnUse" x1="599.9922" y1="786.0566" x2="599.9922" y2="772.8076" gradientTransform="matrix(1 0 0 1 -588 -767)">
		<stop  offset="0" style="stop-color:#4D4D4D"/>
		<stop  offset="1" style="stop-color:#000000"/>
	</linearGradient>
	<path fill="url(#SVGID_3_)" d="M11.983,19.057c-1.161,0-1.973-0.852-1.973-1.992c0-1.182,0.812-2.01,1.992-2.01
		c1.18,0,1.954,0.828,1.975,2.01c0,1.142-0.774,1.992-1.975,1.992H11.983z M10.707,14.355l-0.502-8.548h3.598l-0.504,8.548H10.707z"
		/>
</g>
</svg>
