<?xml version="1.0" encoding="UTF-8" standalone="no"?>
<!-- Created with Inkscape (http://www.inkscape.org/) -->

<svg
   xmlns:dc="http://purl.org/dc/elements/1.1/"
   xmlns:cc="http://creativecommons.org/ns#"
   xmlns:rdf="http://www.w3.org/1999/02/22-rdf-syntax-ns#"
   xmlns:svg="http://www.w3.org/2000/svg"
   xmlns="http://www.w3.org/2000/svg"
   xmlns:sodipodi="http://sodipodi.sourceforge.net/DTD/sodipodi-0.dtd"
   xmlns:inkscape="http://www.inkscape.org/namespaces/inkscape"
   id="svg3020"
   version="1.1"
   inkscape:version="0.48.3.1 r9886"
   width="990"
   height="243.75"
   xml:space="preserve"
   sodipodi:docname="perforce-logo.pdf"><metadata
     id="metadata3026"><rdf:RDF><cc:Work
         rdf:about=""><dc:format>image/svg+xml</dc:format><dc:type
           rdf:resource="http://purl.org/dc/dcmitype/StillImage" /><dc:title></dc:title></cc:Work></rdf:RDF></metadata><defs
     id="defs3024"><clipPath
       clipPathUnits="userSpaceOnUse"
       id="clipPath3038"><path
         d="M 0,195 792,195 792,0 0,0 0,195 z"
         id="path3040" /></clipPath></defs><sodipodi:namedview
     pagecolor="#ffffff"
     bordercolor="#666666"
     borderopacity="1"
     objecttolerance="10"
     gridtolerance="10"
     guidetolerance="10"
     inkscape:pageopacity="0"
     inkscape:pageshadow="2"
     inkscape:window-width="857"
     inkscape:window-height="612"
     id="namedview3022"
     showgrid="false"
     inkscape:zoom="0.35151515"
     inkscape:cx="495"
     inkscape:cy="121.875"
     inkscape:window-x="65"
     inkscape:window-y="24"
     inkscape:window-maximized="0"
     inkscape:current-layer="g3028" /><g
     id="g3028"
     inkscape:groupmode="layer"
     inkscape:label="perforce-logo"
     transform="matrix(1.25,0,0,-1.25,0,243.75)"><g
       id="g3030"
       transform="translate(273.3003,59.2559)"><path
         d="m 0,0 0,80.174 59.951,0 -3.857,-14.586 -38.687,0 0,-16.122 28.79,0 0,-15.04 -28.79,0 0,-19.832 41.701,0 L 59.108,0 0,0 z"
         style="fill:#241d10;fill-opacity:1;fill-rule:nonzero;stroke:none"
         id="path3032" /></g><g
       id="g3034"><g
         id="g3036"
         clip-path="url(#clipPath3038)"><g
           id="g3042"
           transform="translate(357.3145,96.6973)"><path
             d="m 0,0 12.219,0 c 6.509,0 12.658,7.095 12.658,14.598 0,7.85 -4.45,13.548 -10.583,13.548 L 0,28.146 0,0 z m 26.022,-37.441 -7.025,19.258 c -0.836,2.601 -3.405,3.589 -9.457,3.589 l -9.54,0 0,-22.847 -17.564,0 0,80.321 32.599,0 c 15.281,0 27.249,-12.42 27.249,-28.282 0,-8.121 -3.829,-16.466 -9.987,-21.772 L 31.105,-8.2 32.408,-9.08 c 2.093,-1.411 3.594,-3.283 4.34,-5.423 l 8.267,-22.938 -18.993,0 z"
             style="fill:#241d10;fill-opacity:1;fill-rule:nonzero;stroke:none"
             id="path3044" /></g><g
           id="g3046"
           transform="translate(408.7236,59.2559)"><path
             d="m 0,0 0,80.174 59.946,0 -3.853,-14.586 -38.682,0 0,-16.122 28.774,0 0,-15.04 -28.776,0 0.002,-1.199 C 17.425,20.783 17.546,1.23 17.551,0.838 L 17.551,0 0,0 z"
             style="fill:#241d10;fill-opacity:1;fill-rule:nonzero;stroke:none"
             id="path3048" /></g><g
           id="g3050"
           transform="translate(502.3506,125.7344)"><path
             d="m 0,0 c -17.271,0 -19.002,-12.597 -19.336,-26.629 -0.166,-6.782 0.247,-16.439 5.729,-22.052 3.181,-3.253 7.631,-4.834 13.607,-4.834 6.021,0 10.515,1.6 13.731,4.899 4.198,4.305 6.024,11.246 5.756,21.832 C 19.338,-13.235 17.711,0 0,0 m 0.304,-67.958 c -34.12,0 -37.808,28.916 -37.808,41.348 0,15.443 4.872,41.347 37.504,41.347 32.76,0 37.653,-25.904 37.653,-41.347 0,-15.444 -4.855,-41.348 -37.349,-41.348"
             style="fill:#241d10;fill-opacity:1;fill-rule:nonzero;stroke:none"
             id="path3052" /></g><g
           id="g3054"
           transform="translate(563.7402,96.6973)"><path
             d="m 0,0 12.215,0 c 6.627,0 12.661,6.963 12.661,14.598 0,7.85 -4.447,13.548 -10.58,13.548 L 0,28.146 0,0 z m 26.027,-37.441 -7.035,19.258 c -0.834,2.601 -3.4,3.589 -9.448,3.589 l -9.544,0 0,-22.847 -17.557,0 0,80.321 32.576,0 c 15.299,0 27.282,-12.42 27.282,-28.282 0,-8.11 -3.837,-16.458 -10.005,-21.772 L 31.104,-8.2 32.411,-9.08 c 2.089,-1.419 3.593,-3.283 4.344,-5.423 l 8.254,-22.938 -18.982,0 z"
             style="fill:#241d10;fill-opacity:1;fill-rule:nonzero;stroke:none"
             id="path3056" /></g><g
           id="g3058"
           transform="translate(224.9971,96.6973)"><path
             d="m 0,0 12.209,0 c 6.631,0 12.668,6.963 12.668,14.598 0,7.85 -4.45,13.548 -10.579,13.548 L 0,28.146 0,0 z m -17.561,-37.441 0,80.321 32.583,0 c 15.292,0 27.275,-12.42 27.275,-28.282 0,-4.174 -2.503,-15.432 -9.944,-21.727 -8.181,-6.929 -19.529,-7.465 -22.813,-7.465 l -9.54,0 0,-22.847 -17.561,0 z"
             style="fill:#241d10;fill-opacity:1;fill-rule:nonzero;stroke:none"
             id="path3060" /></g><g
           id="g3062"
           transform="translate(649.7168,57.7725)"><path
             d="m 0,0 c -12.313,0 -21.893,3.396 -28.487,10.1 -8.819,8.97 -10.485,21.957 -10.332,31.271 0.392,15.424 6.15,41.328 40.298,41.328 14.09,0 21.878,-5.053 24.807,-6.951 l 0.702,-0.464 -7.675,-12.009 -0.669,0.321 c -5.676,2.694 -10.55,4.366 -17.294,4.366 -14.185,0 -21.587,-9.012 -22.008,-26.784 -0.244,-9.752 1.783,-16.904 6.017,-21.259 3.459,-3.536 8.484,-5.332 14.945,-5.332 8.165,0 13.888,2.743 17.301,4.381 l 0.676,0.325 7.52,-12.19 -0.709,-0.438 C 20.527,3.805 12.954,0 0,0"
             style="fill:#241d10;fill-opacity:1;fill-rule:nonzero;stroke:none"
             id="path3064" /></g><g
           id="g3066"
           transform="translate(682.9756,59.2559)"><path
             d="m 0,0 0,80.174 59.953,0 -3.853,-14.586 -38.685,0 0,-16.122 28.778,0 0,-15.04 -28.778,0 0,-19.832 41.689,0 L 59.104,0 0,0 z"
             style="fill:#241d10;fill-opacity:1;fill-rule:nonzero;stroke:none"
             id="path3068" /></g><g
           id="g3070"
           transform="translate(50.6665,133.9204)"><path
             d="m 0,0 c 0,0 20.237,7.714 36.469,14.779 16.232,7.065 30.123,14.209 30.123,14.209 0,0 11.571,-6.135 28.808,-13.637 C 112.638,7.848 133.185,0 133.185,0 c 0,0 -14.653,-3.095 -34.015,-11.526 -19.362,-8.431 -32.578,-17.475 -32.578,-17.475 0,0 -16.597,10.518 -34.784,18.438 C 13.621,-2.644 0,0 0,0"
             style="fill:#fab20b;fill-opacity:1;fill-rule:nonzero;stroke:none"
             id="path3072" /></g><g
           id="g3074"
           transform="translate(168.958,87.3848)"><path
             d="m 0,0 c 0,0 -14.304,-7.802 -18.627,-11.052 -16.881,-12.688 -24.985,-20.88 -24.985,-20.88 0,0 -15.126,6.785 -34.738,9.768 -2.578,0.393 -7.491,0.885 -7.491,0.885 l -26.25,-19.395 c 0,0 13.736,1.569 33.415,-0.909 19.681,-2.478 38.406,-9.977 38.406,-9.977 0,0 10.297,13.331 26.501,26.872 16.205,13.543 28.49,18.892 28.49,18.892 L 0,0 z"
             style="fill:#fab20b;fill-opacity:1;fill-rule:nonzero;stroke:none"
             id="path3076" /></g><g
           id="g3078"
           transform="translate(150.0371,107.457)"><path
             d="m 0,0 c -20.228,-10.135 -30.22,-18.162 -30.22,-18.162 0,0 -13.291,7.214 -32.063,13.62 -2.933,1.002 -5.377,2.004 -8.171,2.644 -13.207,-7.95 -25.562,-14.918 -25.562,-14.918 0,0 12.434,-1.165 31.543,-6.483 19.11,-5.317 37.282,-13.156 37.282,-13.156 0,0 11.557,10.518 29.561,21.556 C 20.376,-3.861 33.577,0.472 33.577,0.472 L 18.327,6.855 C 18.327,6.855 5.032,2.521 0,0"
             style="fill:#fab20b;fill-opacity:1;fill-rule:nonzero;stroke:none"
             id="path3080" /></g></g></g></g></svg>