<?xml version="1.0" encoding="utf-8"?>
<!-- Generator: Adobe Illustrator 15.0.1, SVG Export Plug-In . SVG Version: 6.00 Build 0)  -->
<!DOCTYPE svg PUBLIC "-//W3C//DTD SVG 1.1//EN" "http://www.w3.org/Graphics/SVG/1.1/DTD/svg11.dtd">
<svg version="1.1" id="Layer_1" xmlns="http://www.w3.org/2000/svg" xmlns:xlink="http://www.w3.org/1999/xlink" x="0px" y="0px"
	 width="24px" height="24px" viewBox="0 0 24 24" enable-background="new 0 0 24 24" xml:space="preserve">
<g>
	
		<linearGradient id="SVGID_1_" gradientUnits="userSpaceOnUse" x1="306.001" y1="-382.4487" x2="306.001" y2="-359.5" gradientTransform="matrix(1 0 0 -1 -294 -359)">
		<stop  offset="0" style="stop-color:#4D4D4D"/>
		<stop  offset="1" style="stop-color:#000000"/>
	</linearGradient>
	<path fill="url(#SVGID_1_)" d="M23.105,21.66c0.492,0.984-0.006,1.789-1.105,1.789H2c-1.1,0-1.598-0.805-1.105-1.789l10.21-20.422
		c0.492-0.984,1.297-0.984,1.79,0L23.105,21.66z"/>
	<g>
		
			<linearGradient id="SVGID_2_" gradientUnits="userSpaceOnUse" x1="294.2061" y1="-370.9746" x2="317.7939" y2="-370.9746" gradientTransform="matrix(1 0 0 -1 -294 -359)">
			<stop  offset="0.3681" style="stop-color:#EBEBEB"/>
			<stop  offset="1" style="stop-color:#B3B3B3"/>
		</linearGradient>
		<path fill="url(#SVGID_2_)" d="M22,23.949H2c-0.702,0-1.276-0.279-1.575-0.764c-0.299-0.485-0.292-1.121,0.022-1.75L10.658,1.014
			C11.1,0.132,11.688,0,12,0s0.9,0.132,1.342,1.014l10.211,20.421c0.313,0.629,0.322,1.266,0.022,1.75
			C23.275,23.669,22.701,23.949,22,23.949z M12,1c-0.108,0-0.288,0.143-0.447,0.461L1.342,21.883
			c-0.155,0.311-0.18,0.594-0.066,0.777C1.39,22.843,1.653,22.949,2,22.949h20c0.348,0,0.611-0.105,0.725-0.289
			c0.114-0.184,0.09-0.467-0.065-0.777L12.447,1.461C12.288,1.143,12.108,1,12,1z"/>
	</g>
</g>
<g>
	
		<linearGradient id="SVGID_3_" gradientUnits="userSpaceOnUse" x1="305.9941" y1="-380.4937" x2="305.9941" y2="-367.2451" gradientTransform="matrix(1 0 0 -1 -294 -359)">
		<stop  offset="0.3681" style="stop-color:#EBEBEB"/>
		<stop  offset="1" style="stop-color:#B3B3B3"/>
	</linearGradient>
	<path fill="url(#SVGID_3_)" d="M11.983,21.494c-1.161,0-1.973-0.852-1.973-1.992c0-1.182,0.812-2.011,1.992-2.011
		c1.18,0,1.954,0.829,1.975,2.011c0,1.141-0.775,1.992-1.975,1.992H11.983z M10.707,16.794l-0.502-8.549h3.598l-0.504,8.549H10.707z
		"/>
</g>
</svg>
