<?xml version="1.0" encoding="utf-8"?>
<!-- Generator: Adobe Illustrator 15.0.1, SVG Export Plug-In . SVG Version: 6.00 Build 0)  -->
<!DOCTYPE svg PUBLIC "-//W3C//DTD SVG 1.1//EN" "http://www.w3.org/Graphics/SVG/1.1/DTD/svg11.dtd">
<svg version="1.1" id="Layer_1" xmlns="http://www.w3.org/2000/svg" xmlns:xlink="http://www.w3.org/1999/xlink" x="0px" y="0px"
	 width="24px" height="24px" viewBox="0 0 24 24" enable-background="new 0 0 24 24" xml:space="preserve">
<linearGradient id="SVGID_1_" gradientUnits="userSpaceOnUse" x1="305.416" y1="-359.7227" x2="305.416" y2="-383.0005" gradientTransform="matrix(1 0 0 -1 -294 -359)">
	<stop  offset="0.3681" style="stop-color:#EBEBEB"/>
	<stop  offset="1" style="stop-color:#B3B3B3"/>
</linearGradient>
<path fill="url(#SVGID_1_)" d="M1.935,16.668L9.936,24l4.975-3.186l5.317-6.099l-0.879-1.952l0.342-1.463L18.482,9.23l0.137-1.295
	L17.643,6.52c0,0,2.571-2.584,3.073-3.248s-0.187-1.924-0.187-1.924s-1.125-1.177-2.202-0.302c-1.078,0.875-6.298,5.764-6.298,5.764
	l0.221-2.888c0,0-1.102-1.91-2.094-1.828c-0.992,0.082-1.4,1.243-1.587,1.305c-0.186,0.062-3.415,9.66-3.415,9.66L1.935,16.668z"/>
<linearGradient id="SVGID_2_" gradientUnits="userSpaceOnUse" x1="295.5645" y1="-371.1196" x2="315.4541" y2="-371.1196" gradientTransform="matrix(1 0 0 -1 -294 -359)">
	<stop  offset="0" style="stop-color:#4D4D4D"/>
	<stop  offset="1" style="stop-color:#000000"/>
</linearGradient>
<path fill="url(#SVGID_2_)" d="M10.07,23.958c0.447-0.231,4.379-2.272,4.929-2.701c0.585-0.452,4.614-4.952,4.974-5.452
	c0.225-0.31,0.485-0.734,0.533-1.259c0.059-0.626-0.208-1.226-0.781-1.782c0.26-0.304,0.381-0.705,0.346-1.157
	c-0.053-0.712-0.494-1.477-1.213-2.104c0.191-0.26,0.287-0.604,0.271-0.988c-0.03-0.679-0.405-1.404-1.04-2.011
	c1.275-1.23,2.491-2.405,2.771-2.684c0.388-0.385,0.6-0.894,0.595-1.432c-0.005-0.553-0.244-1.085-0.675-1.496
	c-0.854-0.816-1.961-0.873-2.82-0.141c-0.398,0.339-3.271,3.224-5.658,5.635c0.111-0.642,0.236-1.361,0.295-1.62
	c0.084-0.365,0.002-0.959-0.202-1.475c-0.267-0.676-0.708-1.154-1.24-1.344C10.546,1.731,9.941,1.756,9.4,2.019
	C8.701,2.36,8.168,3.066,7.819,4.12c-0.628,1.895-2.965,8.442-3.195,9.05c-0.02,0.051-0.185,0.375-1.526,1.828
	c-0.717,0.777-1.417,1.493-1.424,1.501c-0.074,0.073-0.114,0.178-0.11,0.283c0.002,0.034,0.008,0.069,0.019,0.103
	c0.022,0.066,0.061,0.124,0.113,0.172l7.948,6.852C9.763,24.009,9.932,24.029,10.07,23.958z M2.502,16.741
	c0.275-0.284,0.713-0.743,1.158-1.226c1.511-1.638,1.628-1.942,1.678-2.074c0.232-0.608,2.578-7.181,3.207-9.083
	c0.278-0.837,0.69-1.41,1.19-1.654c0.443-0.216,0.876-0.14,1.161-0.038c0.768,0.274,1.038,1.563,0.954,1.93
	c-0.106,0.473-0.413,2.3-0.484,2.734C10.09,8.62,9.111,9.614,8.998,9.729c-0.104,0.105-0.135,0.256-0.092,0.388
	c0.019,0.056,0.05,0.108,0.096,0.152c0.149,0.148,0.392,0.146,0.54-0.003c2.851-2.894,8.384-8.484,8.911-8.932
	c0.566-0.481,1.223-0.441,1.8,0.111c0.283,0.271,0.435,0.6,0.437,0.95c0.004,0.33-0.129,0.643-0.367,0.881
	C19.7,3.893,14.284,9.111,14.23,9.163c-0.153,0.147-0.157,0.389-0.012,0.541c0.147,0.152,0.391,0.157,0.541,0.01
	c0.108-0.105,1.403-1.353,2.779-2.68c0.504,0.476,0.803,1.022,0.826,1.513c0.009,0.229-0.047,0.427-0.156,0.542
	c-0.461,0.486-2.559,2.708-2.58,2.73c-0.1,0.106-0.127,0.253-0.085,0.383c0.019,0.057,0.054,0.113,0.101,0.158
	c0.154,0.145,0.396,0.139,0.541-0.016c0.018-0.018,1.385-1.467,2.153-2.28c0.578,0.499,0.933,1.081,0.97,1.599
	c0.014,0.172-0.007,0.418-0.168,0.605c-0.507,0.585-1.884,1.895-1.896,1.909c-0.111,0.104-0.145,0.261-0.1,0.396
	c0.016,0.053,0.045,0.101,0.084,0.144c0.146,0.153,0.391,0.16,0.541,0.016c0.045-0.041,0.823-0.783,1.434-1.409
	c0.833,0.812,0.566,1.458,0.148,2.034c-0.371,0.516-4.35,4.932-4.818,5.297c-0.359,0.277-2.854,1.604-4.583,2.506L2.502,16.741z"/>
</svg>
