<?xml version="1.0" encoding="UTF-8" standalone="no"?>
<!-- Created with Inkscape (http://www.inkscape.org/) -->

<svg
   xmlns:dc="http://purl.org/dc/elements/1.1/"
   xmlns:cc="http://creativecommons.org/ns#"
   xmlns:rdf="http://www.w3.org/1999/02/22-rdf-syntax-ns#"
   xmlns:svg="http://www.w3.org/2000/svg"
   xmlns="http://www.w3.org/2000/svg"
   version="1.1"
   width="558.48749"
   height="64.287498"
   id="svg2"
   xml:space="preserve"><metadata
     id="metadata8"><rdf:RDF><cc:Work
         rdf:about=""><dc:format>image/svg+xml</dc:format><dc:type
           rdf:resource="http://purl.org/dc/dcmitype/StillImage" /><dc:title></dc:title></cc:Work></rdf:RDF></metadata><defs
     id="defs6" /><g
     transform="matrix(1.25,0,0,-1.25,0,64.2875)"
     id="g10"><g
       transform="scale(0.1,0.1)"
       id="g12"><path
         d="m 63.9336,225.887 c -8.0586,0 -14.5938,6.535 -14.5938,14.59 l 0,209.668 c 0,8.062 6.5352,14.597 14.5938,14.597 l 92.4534,0 c 67.242,0 121.574,-42.508 124.121,-113.375 -2.547,-72.281 -56.863,-125.48 -123.43,-125.48 l -93.1444,0 z M 34.1523,9.92188 c 6.9454,0 14.9571,3.63282 15.1875,9.98832 l 0,149.4378 c 0,8.054 6.5352,14.586 14.5938,14.586 l 111.9024,0 c 85.492,0 156.391,66.726 156.391,157.785 0,1.676 -0.196,3.285 -0.247,4.945 0.051,1.684 0.247,3.32 0.247,5.024 0,89.66 -70.899,155.691 -157.082,155.691 l -160.5473,0 C 6.57422,507.379 0,500.809 0,492.781 L 0,25.4688 C 0,15.8398 9.45313,9.92188 17.4844,9.92188"
         id="path14"
         style="fill:#231f20;fill-opacity:1;fill-rule:nonzero;stroke:none" /><path
         d="m 858.34,507.379 -284.262,0 c -8.027,0 -14.598,-6.57 -14.598,-14.598 l 0,-467.3122 c 0,-8.0274 6.571,-14.6016 14.598,-14.6016 l 284.262,0 c 8.027,0 14.594,6.5742 14.594,14.6016 0,1.7578 0,1.4062 0,4.7539 0,4.5234 0,3.457 0,5.2148 0,8.0313 -6.567,14.6016 -14.594,14.6016 l -234.238,0 c -8.055,0 -14.594,6.5312 -14.594,14.5898 l 0,166.5701 c 0,8.059 6.539,14.59 14.594,14.59 l 200.179,0 c 8.028,0 14.602,6.574 14.602,14.602 l 0,0.699 c 0,1.629 -0.078,0.047 0.109,3.953 -0.238,4.641 -0.109,3.691 -0.109,5.316 l 0,0.7 c 0,8.035 -6.574,14.601 -14.602,14.601 l -200.179,0 c -8.055,0 -14.594,6.535 -14.594,14.594 l 0,152.66 c 0,8.063 6.539,14.602 14.594,14.602 l 234.238,0 c 8.027,0 14.594,6.566 14.594,14.593 l 0,10.672 c 0,8.028 -6.567,14.598 -14.594,14.598"
         id="path16"
         style="fill:#231f20;fill-opacity:1;fill-rule:nonzero;stroke:none" /><path
         d="m 4453.32,507.379 -284.26,0 c -8.02,0 -14.6,-6.57 -14.6,-14.598 l 0,-467.3122 c 0,-8.0274 6.58,-14.6016 14.6,-14.6016 l 284.26,0 c 8.04,0 14.6,6.5742 14.6,14.6016 0,1.7578 0,1.4062 0,4.7539 0,4.5234 0,3.457 0,5.2148 0,8.0313 -6.56,14.6016 -14.6,14.6016 l -234.23,0 c -8.06,0 -14.6,6.5312 -14.6,14.5898 l 0,166.5701 c 0,8.059 6.54,14.59 14.6,14.59 l 200.18,0 c 8.02,0 14.59,6.574 14.59,14.602 l 0,0.699 c 0,1.629 -0.07,0.047 0.11,3.953 -0.23,4.641 -0.11,3.691 -0.11,5.316 l 0,0.7 c 0,8.035 -6.57,14.601 -14.59,14.601 l -200.18,0 c -8.06,0 -14.6,6.535 -14.6,14.594 l 0,152.66 c 0,8.063 6.54,14.602 14.6,14.602 l 234.23,0 c 8.04,0 14.6,6.566 14.6,14.593 l 0,10.672 c 0,8.028 -6.56,14.598 -14.6,14.598"
         id="path18"
         style="fill:#231f20;fill-opacity:1;fill-rule:nonzero;stroke:none" /><path
         d="m 1174.54,240.477 c -8.06,0 -14.59,6.535 -14.59,14.597 l 0,195.762 c 0,8.059 6.53,14.594 14.59,14.594 l 114.71,0 c 65.73,0 112.11,-42.242 114.83,-105.75 -2.73,-66.211 -49.09,-119.203 -114.14,-119.203 l -115.4,0 z m -33.36,-229.6098 4.91,0 c 8.1,0 13.17,4.1719 13.17,9.043 l 0,164.0238 c 0,8.058 6.53,14.601 14.59,14.601 l 113.29,0 c 0.69,0 1.31,0 1.98,0 4.79,-0.437 9.14,-3.047 11.51,-7.324 l 94.96,-172.0001 c 3.47,-6.2617 6.26,-8.3437 14.59,-8.3437 l 36.33,0 c 0,0 14.96,0 3.28,22.4805 l -92.96,164.9063 0.67,-1.184 c -4.57,8.086 6.88,11.809 6.88,11.809 54.98,18.094 97.48,86.137 95.22,152.793 1.71,53.152 -23.97,107.047 -93.67,135.652 -3.53,1.446 -26.48,10.055 -65.52,10.055 l -181.45,0 c -5.56,0 -9.04,-4.168 -9.04,-9.035 l 0,-472.8752 c 0,-8.0274 6.57,-14.6016 14.6,-14.6016 l 4.9,0"
         id="path20"
         style="fill:#231f20;fill-opacity:1;fill-rule:nonzero;stroke:none" /><path
         d="m 2984.11,240.477 c -8.07,0 -14.6,6.535 -14.6,14.597 l 0,195.762 c 0,8.059 6.53,14.594 14.6,14.594 l 114.71,0 c 65.72,0 112.1,-42.242 114.82,-105.75 -2.72,-66.211 -49.08,-119.203 -114.14,-119.203 l -115.39,0 z m -33.36,-229.6098 4.9,0 c 8.1,0 13.18,4.1719 13.18,9.043 l 0,164.0238 c 0,8.058 6.53,14.601 14.59,14.601 l 113.29,0 c 0.68,0 1.31,0 1.97,0 4.79,-0.437 9.15,-3.047 11.51,-7.324 l 94.97,-172.0001 c 3.47,-6.2617 6.25,-8.3437 14.59,-8.3437 l 36.32,0 c 0,0 14.97,0 3.29,22.4805 l -92.96,164.9063 0.66,-1.184 c -4.56,8.086 6.89,11.809 6.89,11.809 54.98,18.094 97.48,86.137 95.22,152.793 1.71,53.152 -23.96,107.047 -93.67,135.652 -3.53,1.446 -26.48,10.055 -65.53,10.055 l -181.44,0 c -5.57,0 -9.05,-4.168 -9.05,-9.035 l 0,-472.8752 c 0,-8.0274 6.57,-14.6016 14.6,-14.6016 l 4.9,0"
         id="path22"
         style="fill:#231f20;fill-opacity:1;fill-rule:nonzero;stroke:none" /><path
         d="m 1736.8,10.8672 6.95,0 c 6.95,0 11.13,4.1719 11.13,9.043 l 0,192.5198 c 0,8.058 6.54,14.601 14.59,14.601 l 206.43,0 c 10.42,0 9.04,12.508 9.04,20.157 0,0.164 -0.09,0.312 -0.1,0.476 0.27,3.25 0.1,6.699 0.1,9.5 0,4.863 -4.18,9.027 -9.04,9.027 l -206.43,0 c -8.05,0 -14.59,6.539 -14.59,14.598 l 0,172.125 c 0,8.063 6.54,14.602 14.59,14.602 l 234.93,0 c 8.03,0 14.6,6.566 14.6,14.593 l 0,10.672 c 0,8.028 -6.57,14.598 -14.6,14.598 l -284.26,0 c -8.04,0 -14.6,-6.57 -14.6,-14.598 l 0,-467.3122 c 0,-8.0274 6.56,-14.6016 14.6,-14.6016 l 6.95,0"
         id="path24"
         style="fill:#231f20;fill-opacity:1;fill-rule:nonzero;stroke:none" /><path
         d="m 3918.91,98.9063 c 5.62,-5.1758 17.33,-18.1446 5.41,-27.5665 -51.69,-40.832 -107.74,-67.41402 -169.59,-67.41402 -2.92,0 -5.79,0.11719 -8.69,0.21485 -2.65,-0.10938 -5.31,-0.21485 -7.98,-0.21485 -139.02,0 -251.61,109.81222 -251.61,249.51222 0,1.667 0.09,3.316 0.12,4.976 -0.03,1.668 -0.12,3.32 -0.12,5 0,139.008 112.59,250.91 251.61,250.91 2.13,0 4.09,-0.222 6.19,-0.261 3.47,0.14 6.96,0.261 10.48,0.261 70.89,0 123.72,-23.633 168.88,-64.636 14.05,-11.965 0.71,-22.481 0.71,-22.481 l -10.54,-10.352 c -4.16,-4.171 -15.72,-13.339 -20.87,-8.363 -6.75,6.414 -8.19,7.59 -8.19,7.59 l 8.19,-7.59 c -6.59,6.102 -3.46,3.25 -8.19,7.59 -37.6,33.645 -84.67,54.52 -138.08,56.59 -116.02,-4.27 -206.1,-98.942 -208.64,-214.231 2.54,-114.535 92.49,-208.4996 208.4,-212.8551 55.6,2.1289 98.61,24.8829 138.32,57.9691 0,0 17.07,13.293 34.16,-4.6292"
         id="path26"
         style="fill:#231f20;fill-opacity:1;fill-rule:nonzero;stroke:none" /><path
         d="m 3918.88,98.9258 c 0,0 0.02,-0.0117 0.03,-0.0195 0,0 0.01,0 0.01,-0.0118 l -0.04,0.0313"
         id="path28"
         style="fill:#231f20;fill-opacity:1;fill-rule:nonzero;stroke:none" /><path
         d="m 3918.88,98.9258 c -1.54,1.4182 -2.64,2.2732 -2.64,2.2732 l 2.64,-2.2732"
         id="path30"
         style="fill:#231f20;fill-opacity:1;fill-rule:nonzero;stroke:none" /><path
         d="M 2368.88,69.2188 C 2263.73,108.68 2210.48,225.918 2249.94,331.07 c 3.71,9.914 8.15,19.368 13.17,28.34 -4.88,4.633 -17.1,14.266 -16.39,15.121 63.64,77.086 146.73,100.203 220.25,86.676 15.01,-1.992 30.03,-5.652 44.81,-11.199 105.16,-39.457 158.42,-156.684 118.95,-261.844 -3.94,-10.519 -8.71,-20.508 -14.12,-29.941 5.96,-5.125 18.65,-14.602 17.97,-15.418 -70.69,-84.4964 -164.9,-103.9652 -243.17,-80.5394 -7.55,1.8828 -15.07,4.1602 -22.53,6.9532 z m 343.8,263.4762 c 0,0 -9.31,117.391 -103.92,178.93 -13.36,-12.871 -29.29,-28.414 -37.12,-35.582 -12.51,7.168 -25.74,13.484 -39.7,18.727 -119.59,44.878 -245.38,-5.942 -314.66,-100.368 -36.36,-54.144 -57.73,-120.726 -52.43,-189.422 0,0 0.2,-128.9331 117.85,-204.98 9.67,13.2813 21.97,30.4609 30.03,41.3672 13.09,-7.6367 26.95,-14.3359 41.62,-19.8438 135.31,-50.7695 285.23,14.0625 334.19,144.5316 0,0 36.02,79.629 24.14,166.64"
         id="path32"
         style="fill:#231f20;fill-opacity:1;fill-rule:nonzero;stroke:none" /></g></g></svg>